<svg width="33" height="33" viewBox="0 0 33 33" fill="none" xmlns="http://www.w3.org/2000/svg">
<g clip-path="url(#clip0_52_209)">
<path d="M9.625 24.03C8.1125 24.03 6.88875 25.2315 6.88875 26.7C6.88875 28.1685 8.1125 29.37 9.625 29.37C11.1375 29.37 12.375 28.1685 12.375 26.7C12.375 25.2315 11.1375 24.03 9.625 24.03ZM1.375 4.00492C1.375 4.73918 1.99375 5.33993 2.75 5.33993H4.125L9.075 15.4726L7.21875 18.73C6.215 20.5189 7.535 22.695 9.625 22.695H24.75C25.5063 22.695 26.125 22.0942 26.125 21.36C26.125 20.6257 25.5063 20.025 24.75 20.025H9.625L11.1375 17.3549H21.3813C22.4125 17.3549 23.32 16.8076 23.7875 15.9799L28.71 7.31573C29.2187 6.43463 28.5588 5.33993 27.5138 5.33993H7.16375L6.2425 3.43087C6.0225 2.96362 5.5275 2.66992 5.005 2.66992H2.75C1.99375 2.66992 1.375 3.27067 1.375 4.00492V4.00492ZM23.375 24.03C21.8625 24.03 20.6388 25.2315 20.6388 26.7C20.6388 28.1685 21.8625 29.37 23.375 29.37C24.8875 29.37 26.125 28.1685 26.125 26.7C26.125 25.2315 24.8875 24.03 23.375 24.03Z" fill="white"/>
</g>
<defs>
<clipPath id="clip0_52_209">
<rect width="33" height="32.0401" fill="white"/>
</clipPath>
</defs>
</svg>
