<svg width="24" height="17" viewBox="0 0 24 17" fill="none" xmlns="http://www.w3.org/2000/svg">
<path d="M1.33333 16.03H22.6667C23.4 16.03 24 15.4293 24 14.695C24 13.9608 23.4 13.36 22.6667 13.36H1.33333C0.6 13.36 0 13.9608 0 14.695C0 15.4293 0.6 16.03 1.33333 16.03ZM1.33333 9.35502H22.6667C23.4 9.35502 24 8.75427 24 8.02002C24 7.28577 23.4 6.68502 22.6667 6.68502H1.33333C0.6 6.68502 0 7.28577 0 8.02002C0 8.75427 0.6 9.35502 1.33333 9.35502ZM0 1.34501C0 2.07926 0.6 2.68001 1.33333 2.68001H22.6667C23.4 2.68001 24 2.07926 24 1.34501C24 0.610761 23.4 0.0100098 22.6667 0.0100098H1.33333C0.6 0.0100098 0 0.610761 0 1.34501Z" fill="white"/>
</svg>
