<svg width="32" height="33" viewBox="0 0 32 33" fill="none" xmlns="http://www.w3.org/2000/svg">
<path d="M27.3367 4.6794C24.3296 1.65628 20.3256 0 16.0643 0C7.28442 0 0.128643 7.15578 0.128643 15.9357C0.128643 18.7497 0.868342 21.4834 2.25126 23.8955L0 32.1608L8.44221 29.9417C10.7739 31.2121 13.395 31.8874 16.0643 31.8874C24.8442 31.8874 32 24.7317 32 15.9518C32 11.6905 30.3437 7.68643 27.3367 4.6794ZM16.0643 29.1859C13.6844 29.1859 11.3528 28.5427 9.31055 27.3367L8.82814 27.0472L3.81106 28.3658L5.14573 23.4774L4.82412 22.9789C3.50553 20.8724 2.79799 18.4281 2.79799 15.9357C2.79799 8.63518 8.74774 2.68543 16.0482 2.68543C19.5859 2.68543 22.9146 4.06834 25.407 6.57688C27.9156 9.08543 29.2824 12.4141 29.2824 15.9518C29.3146 23.2523 23.3648 29.1859 16.0643 29.1859ZM23.3327 19.2804C22.9307 19.0874 20.9688 18.1226 20.6151 17.9779C20.2452 17.8492 19.9879 17.7849 19.7146 18.1709C19.4412 18.5729 18.6854 19.4734 18.4603 19.7307C18.2352 20.004 17.994 20.0362 17.592 19.8271C17.1899 19.6342 15.9035 19.2 14.392 17.8492C13.202 16.7879 12.4141 15.4854 12.1729 15.0834C11.9477 14.6814 12.1407 14.4724 12.3497 14.2633C12.5266 14.0864 12.7518 13.797 12.9447 13.5719C13.1377 13.3467 13.2181 13.1698 13.3467 12.9126C13.4754 12.6392 13.4111 12.4141 13.3146 12.2211C13.2181 12.0281 12.4141 10.0663 12.0925 9.26231C11.7709 8.49045 11.4332 8.58693 11.192 8.57085C10.9508 8.57085 10.6935 8.57085 10.4201 8.57085C10.1467 8.57085 9.72864 8.66734 9.35879 9.06935C9.00502 9.47136 7.97588 10.4362 7.97588 12.398C7.97588 14.3598 9.40703 16.2573 9.6 16.5146C9.79296 16.7879 12.4141 20.808 16.402 22.5286C17.3508 22.9467 18.0905 23.1879 18.6693 23.3648C19.6181 23.6704 20.4864 23.6221 21.1779 23.5256C21.9497 23.4131 23.5417 22.5608 23.8633 21.6281C24.201 20.6955 24.201 19.9075 24.0884 19.7307C23.9759 19.5538 23.7347 19.4734 23.3327 19.2804Z" fill="#FFF3E7"/>
</svg>
