<svg width="53" height="54" viewBox="0 0 53 54" fill="none" xmlns="http://www.w3.org/2000/svg">
<path d="M12.4943 28.7534C17.9154 27.4089 25.8494 29.0843 29.2928 32.3219C32.2122 35.0667 31.8891 35.5517 27.6193 34.9551C25.8417 34.7298 21.715 35.3195 18.5937 36.1971C13.1062 37.6107 5.70662 37.7523 4.28434 36.4151C3.53577 35.7113 4.51183 33.2111 6.30279 31.3455C7.09877 30.5164 9.92067 29.3573 12.4943 28.7534Z" fill="#311C06"/>
<path d="M8.55791 39.3815C10.5516 39.6784 14.9692 39.2308 18.3729 38.3558C25.0391 36.6044 30.9861 36.9375 31.6039 38.9643C32.5059 42.1787 23.5607 47.0457 17.8212 46.6449C11.7994 46.2415 4.3601 42.2705 4.7714 39.7651C4.87849 39.2085 6.63055 39.0154 8.55791 39.3815Z" fill="#311C06"/>
<path d="M37.9041 21.8604C32.6615 19.2936 27.4331 12.967 26.8482 8.45048C26.3523 4.62125 26.9364 4.48871 29.9548 7.67817C31.227 8.98979 34.9267 11.2498 38.0147 12.6547C43.3568 15.2158 49.3765 19.9142 49.6181 21.7797C49.7452 22.7615 47.2862 23.8922 44.6006 24.0468C43.407 24.1155 40.3699 23.1033 37.9041 21.8604Z" fill="#311C06"/>
<path d="M48.1776 16.9042C46.7805 15.4019 42.9432 12.8531 39.6309 11.2633C33.1186 8.1761 28.5805 4.08501 29.4457 2.25472C30.8801 -0.597483 41.3075 1.7698 45.6339 5.77416C50.1847 9.96343 53.4769 17.5883 51.4667 19.0888C51.0075 19.412 49.4751 18.4121 48.1776 16.9042Z" fill="#311C06"/>
</svg>
