<svg width="60" height="44" viewBox="0 0 60 44" fill="none" xmlns="http://www.w3.org/2000/svg">
<path d="M45.8813 18.6861C40.4537 19.8339 34.0953 24.777 32.4278 29.1708C31.0141 32.896 31.5137 33.1902 35.0683 30.8033C36.5582 29.8302 40.5011 28.5679 43.6711 27.9997C49.188 26.885 55.8595 23.8014 56.5483 21.9865C56.9108 21.0313 54.9512 19.2154 52.5397 18.3215C51.468 17.9242 48.4429 18.1103 45.8813 18.6861Z" fill="#311C06"/>
<path d="M54.0213 26.4976C52.3695 27.6286 48.2286 29.1444 44.8075 29.8374C38.0907 31.161 32.9232 34.0396 33.2532 36.1231C33.8458 39.3935 43.9538 39.8718 48.9064 37.0225C54.1101 34.0485 59.028 27.264 57.5706 25.1984C57.2328 24.7463 55.5837 25.3335 54.0213 26.4976Z" fill="#311C06"/>
<path d="M20.184 23.537C23.7504 18.9632 25.6686 11.0281 24.2262 6.72892C23.0032 3.08394 22.4238 3.21865 21.1151 7.38506C20.5493 9.11183 18.2275 12.7413 16.0803 15.3395C12.4225 19.9513 9.08921 26.7713 9.685 28.5471C9.99857 29.4817 12.6871 29.4276 15.1533 28.4008C16.2494 27.9445 18.5221 25.7201 20.184 23.537Z" fill="#311C06"/>
<path d="M8.85078 23.555C9.44517 21.6034 11.7641 17.6555 14.0313 14.7944C18.5057 9.20362 20.7796 3.57029 19.2105 2.30633C16.6883 0.373971 8.40352 7.01856 6.28088 12.4824C4.03826 18.2092 4.41458 26.4671 6.86309 26.9389C7.41387 27.0291 8.34773 25.4687 8.85078 23.555Z" fill="#311C06"/>
</svg>
