<svg width="60" height="44" viewBox="0 0 60 44" fill="none" xmlns="http://www.w3.org/2000/svg">
<path d="M14.119 25.3139C19.5465 24.1661 25.9049 19.2231 27.5724 14.8293C28.9862 11.104 28.4865 10.8099 24.9319 13.1967C23.442 14.1698 19.4992 15.4321 16.3291 16.0003C10.8123 17.115 4.1407 20.1987 3.45196 22.0136C3.08947 22.9687 5.04909 24.7847 7.46051 25.6786C8.53226 26.0759 11.5573 25.8897 14.119 25.3139Z" fill="#152C18"/>
<path d="M5.97896 17.5024C7.6307 16.3714 11.7716 14.8556 15.1928 14.1626C21.9095 12.839 27.077 9.96041 26.7471 7.8769C26.1544 4.60646 16.0464 4.12823 11.0938 6.97746C5.89013 9.95153 0.972241 16.736 2.42961 18.8016C2.76742 19.2537 4.41654 18.6665 5.97896 17.5024Z" fill="#152C18"/>
<path d="M39.816 20.463C36.2496 25.0367 34.3314 32.9719 35.7738 37.2711C36.9968 40.916 37.5762 40.7813 38.8849 36.6149C39.4507 34.8881 41.7725 31.2587 43.9197 28.6605C47.5775 24.0487 50.9108 17.2286 50.315 15.4529C50.0014 14.5183 47.3129 14.5724 44.8467 15.5992C43.7506 16.0555 41.4779 18.2799 39.816 20.463Z" fill="#152C18"/>
<path d="M51.1492 20.445C50.5548 22.3966 48.2359 26.3445 45.9687 29.2056C41.4943 34.7964 39.2204 40.4297 40.7895 41.6937C43.3117 43.626 51.5965 36.9814 53.7191 31.5176C55.9617 25.7908 55.5854 17.5329 53.1369 17.0611C52.5861 16.9709 51.6523 18.5313 51.1492 20.445Z" fill="#152C18"/>
</svg>
