<svg width="60" height="44" viewBox="0 0 60 44" fill="none" xmlns="http://www.w3.org/2000/svg">
<path d="M45.881 18.6861C40.4535 19.8339 34.0951 24.7769 32.4276 29.1707C31.0138 32.896 31.5135 33.1901 35.0681 30.8033C36.558 29.8302 40.5008 28.5679 43.6709 27.9997C49.1877 26.885 55.8593 23.8013 56.548 21.9864C56.9105 21.0313 54.9509 19.2153 52.5395 18.3214C51.4677 17.9241 48.4427 18.1103 45.881 18.6861Z" fill="#152C18"/>
<path d="M54.021 26.4975C52.3693 27.6285 48.2284 29.1443 44.8072 29.8374C38.0905 31.161 32.923 34.0395 33.2529 36.123C33.8456 39.3935 43.9536 39.8717 48.9062 37.0225C54.1099 34.0484 59.0278 27.2639 57.5704 25.1983C57.2326 24.7462 55.5835 25.3334 54.021 26.4975Z" fill="#152C18"/>
<path d="M20.184 23.537C23.7504 18.9632 25.6686 11.0281 24.2262 6.72892C23.0032 3.08394 22.4238 3.21865 21.1151 7.38506C20.5493 9.11183 18.2275 12.7413 16.0803 15.3395C12.4225 19.9513 9.08921 26.7713 9.685 28.5471C9.99857 29.4817 12.6871 29.4276 15.1533 28.4008C16.2494 27.9445 18.5221 25.7201 20.184 23.537Z" fill="#152C18"/>
<path d="M8.85078 23.555C9.44517 21.6034 11.7641 17.6555 14.0313 14.7944C18.5057 9.20362 20.7796 3.57029 19.2105 2.30633C16.6883 0.373971 8.40352 7.01856 6.28088 12.4824C4.03826 18.2092 4.41458 26.4671 6.86309 26.9389C7.41387 27.0291 8.34773 25.4687 8.85078 23.555Z" fill="#152C18"/>
</svg>
