<svg width="61" height="70" viewBox="0 0 61 70" fill="none" xmlns="http://www.w3.org/2000/svg">
<path d="M46.8898 9.11601C42.2362 12.0486 38.0574 18.824 38.0574 23.4757C38.0574 27.4195 38.6272 27.5207 41.0965 24.0824C42.1412 22.6667 45.3703 20.1386 48.1245 18.5206C52.8731 15.588 58.0016 10.4306 58.0016 8.50926C58.0016 7.49802 55.5323 6.48677 52.9681 6.48677C51.8284 6.48677 49.0742 7.70027 46.8898 9.11601Z" fill="#311C06"/>
<path d="M57.2417 13.5655C56.102 15.1835 52.7779 18.0149 49.8338 19.8352C44.0405 23.3745 40.2416 27.824 41.2863 29.6443C42.9958 32.4758 52.588 29.442 56.197 25.0937C59.9959 20.5431 62.1802 12.5542 60.0908 11.1385C59.616 10.8351 58.2864 11.9475 57.2417 13.5655Z" fill="#311C06"/>
<path d="M41.1868 46.8203C36.6273 43.8011 29.0412 43.0072 25.1196 45.1604C21.7947 46.986 21.9651 47.5687 25.9711 48.2995C27.6332 48.6267 31.2128 50.4934 33.8121 52.3347C38.4142 55.4433 45.0623 57.8793 46.6821 56.9899C47.5346 56.5219 47.2796 53.7314 46.1295 51.3198C45.6184 50.2479 43.36 48.2194 41.1868 46.8203Z" fill="#311C06"/>
<path d="M42.1309 58.6057C40.2556 58.2828 36.3774 56.4671 33.5222 54.5406C27.9396 50.7301 22.4843 49.2168 21.4183 51.042C19.7978 53.9606 26.6581 61.5782 31.943 62.9597C37.4835 64.4262 45.1987 62.7825 45.4551 60.162C45.4979 59.5749 43.9637 58.8393 42.1309 58.6057Z" fill="#311C06"/>
<path d="M24.6501 22.4591C26.3567 16.9871 25.3376 8.96235 22.4719 5.46842C20.0423 2.50616 19.5498 2.83054 19.8037 7.14776C19.8872 8.94507 19.0069 13.1125 17.9243 16.2627C16.146 21.8014 15.4514 29.2781 16.6351 30.7212C17.258 31.4808 19.7452 30.5056 21.6811 28.7041C22.5415 27.9035 23.8732 25.0571 24.6501 22.4591Z" fill="#311C06"/>
<path d="M14.0911 26.3748C13.9548 24.3589 14.7199 19.897 15.8212 16.4615C18.0144 9.73321 18.1413 3.72243 16.2313 3.08918C13.1964 2.16344 7.8238 11.1808 7.77801 16.9822C7.71342 23.0689 10.9858 30.6038 13.4353 30.1993C13.9807 30.0936 14.2992 28.324 14.0911 26.3748Z" fill="#311C06"/>
</svg>
