<svg width="60" height="70" viewBox="0 0 60 70" fill="none" xmlns="http://www.w3.org/2000/svg">
<path d="M13.9738 60.8842C18.6151 57.9516 22.7827 51.1763 22.7827 46.5246C22.7827 42.5807 22.2144 42.4796 19.7517 45.9178C18.7098 47.3336 15.4893 49.8617 12.7425 51.4797C8.00651 54.4123 2.89167 59.5696 2.89167 61.491C2.89167 62.5022 5.35437 63.5135 7.91179 63.5135C9.04842 63.5135 11.7953 62.3 13.9738 60.8842Z" fill="#311C06"/>
<path d="M3.6495 56.4347C4.78613 54.8167 8.1013 51.9852 11.0376 50.1649C16.8155 46.6256 20.6042 42.1761 19.5623 40.3558C17.8574 37.5244 8.29074 40.5581 4.69141 44.9065C0.902639 49.4571 -1.2759 57.4459 0.80792 58.8617C1.28152 59.165 2.60759 58.0527 3.6495 56.4347Z" fill="#311C06"/>
<path d="M19.6615 23.1797C24.2089 26.199 31.7748 26.9929 35.6859 24.8396C39.0019 23.0141 38.832 22.4313 34.8366 21.7005C33.179 21.3733 29.609 19.5067 27.0166 17.6653C22.4267 14.5568 15.7964 12.1207 14.1809 13.0101C13.3307 13.4782 13.585 16.2686 14.732 18.6803C15.2418 19.7521 17.4941 21.7807 19.6615 23.1797Z" fill="#311C06"/>
<path d="M18.7199 11.3943C20.5902 11.7172 24.4581 13.5329 27.3057 15.4594C32.8734 19.2699 38.3142 20.7832 39.3774 18.958C40.9935 16.0394 34.1515 8.42176 28.8808 7.04029C23.355 5.57379 15.6604 7.21745 15.4046 9.838C15.362 10.4251 16.8921 11.1607 18.7199 11.3943Z" fill="#311C06"/>
<path d="M36.154 47.541C34.4519 53.013 35.4683 61.0378 38.3264 64.5317C40.7495 67.494 41.2407 67.1696 40.9874 62.8524C40.9042 61.0551 41.7822 56.8877 42.8618 53.7375C44.6354 48.1987 45.3281 40.722 44.1477 39.2789C43.5263 38.5193 41.0458 39.4945 39.1151 41.296C38.257 42.0967 36.9288 44.943 36.154 47.541Z" fill="#311C06"/>
<path d="M46.6849 43.6252C46.8209 45.6411 46.0578 50.103 44.9594 53.5385C42.7721 60.2668 42.6455 66.2776 44.5505 66.9108C47.5772 67.8366 52.9355 58.8192 52.9812 53.0178C53.0456 46.9311 49.782 39.3962 47.339 39.8007C46.7951 39.9064 46.4774 41.676 46.6849 43.6252Z" fill="#311C06"/>
</svg>
