<svg width="60" height="70" viewBox="0 0 60 70" fill="none" xmlns="http://www.w3.org/2000/svg">
<path d="M46.0259 9.11554C41.3847 12.0481 37.217 18.8235 37.217 23.4752C37.217 27.4191 37.7854 27.5202 40.2481 24.082C41.29 22.6662 44.5104 20.1381 47.2573 18.5201C51.9932 15.5875 57.1081 10.4302 57.1081 8.50879C57.1081 7.49755 54.6454 6.4863 52.088 6.4863C50.9513 6.4863 48.2045 7.69979 46.0259 9.11554Z" fill="#152C18"/>
<path d="M56.3503 13.5651C55.2136 15.1831 51.8985 18.0145 48.9622 19.8348C43.1843 23.3742 39.3955 27.8236 40.4374 29.6439C42.1424 32.4754 51.709 29.4416 55.3083 25.0933C59.0971 20.5427 61.2757 12.5538 59.1918 11.1381C58.7182 10.8347 57.3922 11.9471 56.3503 13.5651Z" fill="#152C18"/>
<path d="M40.3382 46.82C35.7908 43.8008 28.2249 43.0069 24.3138 45.1601C20.9978 46.9857 21.1677 47.5684 25.1631 48.2992C26.8208 48.6264 30.3908 50.4931 32.9832 52.3344C37.573 55.443 44.2034 57.879 45.8188 56.9896C46.6691 56.5215 46.4148 53.7311 45.2677 51.3195C44.7579 50.2476 42.5057 48.219 40.3382 46.82Z" fill="#152C18"/>
<path d="M41.2798 58.6054C39.4095 58.2825 35.5417 56.4668 32.6941 54.5403C27.1264 50.7298 21.6856 49.2165 20.6224 51.0417C19.0063 53.9603 25.8482 61.5779 31.119 62.9594C36.6448 64.4259 44.3394 62.7822 44.5951 60.1617C44.6378 59.5746 43.1077 58.839 41.2798 58.6054Z" fill="#152C18"/>
<path d="M23.8458 22.4588C25.5478 16.9868 24.5314 8.96203 21.6734 5.4681C19.2503 2.50584 18.7591 2.83022 19.0123 7.14744C19.0956 8.94475 18.2176 13.1121 17.138 16.2623C15.3644 21.8011 14.6716 29.2778 15.8521 30.7209C16.4734 31.4805 18.9539 30.5053 20.8847 28.7038C21.7428 27.9031 23.0709 25.0568 23.8458 22.4588Z" fill="#152C18"/>
<path d="M13.3148 26.3746C13.1788 24.3587 13.9419 19.8968 15.0403 16.4613C17.2277 9.73295 17.3542 3.72218 15.4493 3.08893C12.4225 2.16318 7.06424 11.1805 7.01858 16.9819C6.95416 23.0686 10.2178 30.6036 12.6608 30.1991C13.2047 30.0933 13.5224 28.3238 13.3148 26.3746Z" fill="#152C18"/>
</svg>
