<svg width="87" height="79" viewBox="0 0 87 79" fill="none" xmlns="http://www.w3.org/2000/svg">
<path d="M75.6707 60.5993C72.0259 54.4879 63.6051 49 57.8236 49C52.9219 49 52.7963 49.7483 57.0695 52.9912C58.8291 54.3631 61.9712 58.6038 63.9821 62.2208C67.6269 68.457 74.0368 75.1921 76.4248 75.1921C77.6817 75.1921 78.9385 71.9492 78.9385 68.5817C78.9385 67.085 77.4303 63.468 75.6707 60.5993Z" fill="#311C06"/>
<path d="M70.1406 74.1942C68.1296 72.6975 64.6105 68.3322 62.3482 64.4657C57.9492 56.8575 52.4192 51.8686 50.1569 53.2405C46.6377 55.4856 50.4082 68.0827 55.8126 72.8222C61.4684 77.8112 71.3974 80.6798 73.157 77.9359C73.534 77.3123 72.1515 75.5661 70.1406 74.1942Z" fill="#311C06"/>
<path d="M28.7521 53.0315C32.5741 47.0276 33.6612 37.0886 31.0275 31.9811C28.7946 27.6509 28.0661 27.8808 27.1036 33.1331C26.6744 35.3125 24.3016 40.02 21.973 43.4442C18.039 49.5049 14.9171 58.2356 16.0049 60.3452C16.5774 61.4555 20.059 61.0886 23.0799 59.5546C24.4226 58.8728 26.9802 55.8927 28.7521 53.0315Z" fill="#311C06"/>
<path d="M14.0374 54.339C14.4639 51.8807 16.7769 46.7832 19.2148 43.0234C24.036 35.6715 25.9923 28.5135 23.731 27.1399C20.1139 25.0537 10.531 34.123 8.74125 41.0564C6.8422 48.3255 8.79181 58.4037 12.0549 58.7082C12.786 58.7572 13.7227 56.7405 14.0374 54.339Z" fill="#311C06"/>
<path d="M59.0658 31.4082C65.8625 33.6309 75.8424 32.2658 80.1964 28.4911C83.8877 25.2908 83.4863 24.6452 78.1182 24.9931C75.8835 25.1087 70.7058 23.9666 66.7933 22.5556C59.9139 20.2389 50.6215 19.3518 48.8231 20.911C47.8766 21.7315 49.0801 24.9943 51.3127 27.5303C52.305 28.6574 55.8388 30.3967 59.0658 31.4082Z" fill="#311C06"/>
<path d="M54.2172 17.5593C56.7239 17.3735 62.2683 18.3634 66.5354 19.7981C74.8923 22.6556 82.3645 22.8021 83.1586 20.2919C84.3204 16.3035 73.1292 9.27857 65.917 9.23784C58.3501 9.17337 48.9708 13.4957 49.4649 16.7109C49.5944 17.4267 51.7932 17.8391 54.2172 17.5593Z" fill="#311C06"/>
</svg>
