<svg width="80" height="87" viewBox="0 0 80 87" fill="none" xmlns="http://www.w3.org/2000/svg">
<path d="M18.9007 75.301C25.0121 71.6981 30.5 63.374 30.5 57.659C30.5 52.8137 29.7517 52.6895 26.5088 56.9136C25.1369 58.6529 20.8962 61.7589 17.2792 63.7467C11.043 67.3497 4.30795 73.6859 4.30795 76.0464C4.30795 77.2888 7.55077 78.5312 10.9183 78.5312C12.415 78.5312 16.032 77.0403 18.9007 75.301Z" fill="#152C18"/>
<path d="M5.30576 69.8344C6.80245 67.8466 11.1678 64.3679 15.0342 62.1316C22.6424 57.7832 27.6314 52.3167 26.2594 50.0804C24.0144 46.6017 11.4172 50.3289 6.67772 55.6711C1.68876 61.2619 -1.17989 71.0768 1.56404 72.8161C2.18766 73.1889 3.93379 71.8222 5.30576 69.8344Z" fill="#152C18"/>
<path d="M26.4685 28.9216C32.4724 32.6997 42.4114 33.7743 47.5189 31.1709C51.8491 28.9637 51.6192 28.2435 46.3669 27.2921C44.1875 26.8678 39.48 24.5223 36.0558 22.2204C29.9951 18.3317 21.2644 15.2456 19.1548 16.3209C18.0445 16.8869 18.4114 20.3284 19.9454 23.3146C20.6272 24.6418 23.6073 27.1701 26.4685 28.9216Z" fill="#152C18"/>
<path d="M25.161 14.3762C27.6193 14.7978 32.7168 17.0842 36.4766 19.4941C43.8285 24.2598 50.9865 26.1937 52.3601 23.9583C54.4463 20.3829 45.377 10.9101 38.4436 9.14092C31.1745 7.26369 21.0963 9.1909 20.7918 12.4164C20.7428 13.1392 22.7595 14.0651 25.161 14.3762Z" fill="#152C18"/>
<path d="M48.0918 58.8868C45.8691 65.6053 47.2342 75.4706 51.0089 79.7745C54.2092 83.4234 54.8548 83.0265 54.5069 77.7202C54.3913 75.5111 55.5334 70.3929 56.9444 66.5255C59.2611 59.7252 60.1482 50.5395 58.589 48.7618C57.7685 47.8262 54.5057 49.0158 51.9697 51.2228C50.8426 52.2037 49.1034 55.6969 48.0918 58.8868Z" fill="#152C18"/>
<path d="M61.9407 54.0941C62.1265 56.572 61.1366 62.0527 59.7019 66.2707C56.8444 74.5315 56.6979 81.9179 59.2081 82.7029C63.1965 83.8513 70.2214 72.7887 70.2622 65.6594C70.3266 58.1795 66.0043 48.908 62.7891 49.3964C62.0733 49.5244 61.6609 51.698 61.9407 54.0941Z" fill="#152C18"/>
</svg>
