<svg width="86" height="79" viewBox="0 0 86 79" fill="none" xmlns="http://www.w3.org/2000/svg">
<path d="M11.1991 18.4007C14.802 24.5121 23.126 30 28.841 30C33.6864 30 33.8106 29.2517 29.5865 26.0088C27.8471 24.6369 24.7411 20.3962 22.7533 16.7792C19.1504 10.543 12.8142 3.80795 10.4536 3.80795C9.21124 3.80795 7.96885 7.05077 7.96885 10.4183C7.96885 11.915 9.45972 15.532 11.1991 18.4007Z" fill="#152C18"/>
<path d="M16.6657 4.80582C18.6535 6.30251 22.1322 10.6678 24.3685 14.5343C28.7169 22.1425 34.1834 27.1314 36.4197 25.7595C39.8984 23.5144 36.1712 10.9173 30.8289 6.17778C25.2382 1.18882 15.4233 -1.67983 13.6839 1.0641C13.3112 1.68772 14.6778 3.43385 16.6657 4.80582Z" fill="#152C18"/>
<path d="M57.5784 25.9685C53.8003 31.9724 52.7257 41.9114 55.3291 47.0189C57.5363 51.3491 58.2565 51.1192 59.2079 45.8669C59.6322 43.6875 61.9777 38.98 64.2796 35.5558C68.1683 29.4951 71.2544 20.7644 70.1791 18.6548C69.6131 17.5445 66.1716 17.9114 63.1854 19.4454C61.8582 20.1272 59.3299 23.1073 57.5784 25.9685Z" fill="#152C18"/>
<path d="M72.124 24.661C71.7024 27.1193 69.416 32.2168 67.0061 35.9766C62.2403 43.3285 60.3065 50.4865 62.5418 51.8601C66.1173 53.9463 75.5901 44.877 77.3593 37.9436C79.2365 30.6745 77.3093 20.5963 74.0837 20.2918C73.361 20.2428 72.4351 22.2595 72.124 24.661Z" fill="#152C18"/>
<path d="M27.6131 47.5918C20.8946 45.3691 11.0293 46.7342 6.72542 50.5089C3.07648 53.7092 3.47335 54.3548 8.77972 54.0069C10.9887 53.8913 16.107 55.0334 19.9744 56.4444C26.7747 58.7611 35.9604 59.6482 37.7381 58.089C38.6737 57.2685 37.4841 54.0057 35.2771 51.4697C34.2962 50.3426 30.803 48.6034 27.6131 47.5918Z" fill="#152C18"/>
<path d="M32.4059 61.4407C29.9281 61.6265 24.4474 60.6366 20.2293 59.2019C11.9685 56.3444 4.58217 56.1979 3.79718 58.7081C2.64874 62.6965 13.7113 69.7214 20.8406 69.7622C28.3206 69.8266 37.592 65.5043 37.1036 62.2891C36.9756 61.5733 34.8021 61.1609 32.4059 61.4407Z" fill="#152C18"/>
</svg>
