<svg width="80" height="87" viewBox="0 0 80 87" fill="none" xmlns="http://www.w3.org/2000/svg">
<path d="M61.0993 11.699C54.9879 15.3019 49.5 23.626 49.5 29.341C49.5 34.1863 50.2483 34.3105 53.4912 30.0864C54.8631 28.3471 59.1038 25.2411 62.7208 23.2533C68.957 19.6503 75.6921 13.3141 75.6921 10.9536C75.6921 9.71118 72.4492 8.46879 69.0817 8.46879C67.585 8.46879 63.968 9.95966 61.0993 11.699Z" fill="#152C18"/>
<path d="M74.6942 17.1656C73.1976 19.1534 68.8322 22.6321 64.9658 24.8684C57.3576 29.2168 52.3686 34.6833 53.7406 36.9196C55.9856 40.3983 68.5828 36.6711 73.3223 31.3289C78.3112 25.7381 81.1799 15.9232 78.436 14.1839C77.8123 13.8111 76.0662 15.1778 74.6942 17.1656Z" fill="#152C18"/>
<path d="M53.5315 58.0784C47.5276 54.3003 37.5886 53.2257 32.4811 55.8291C28.1509 58.0363 28.3808 58.7565 33.6331 59.7079C35.8125 60.1322 40.52 62.4777 43.9442 64.7796C50.0049 68.6683 58.7356 71.7544 60.8452 70.6791C61.9555 70.1131 61.5886 66.6716 60.0546 63.6854C59.3728 62.3582 56.3927 59.8299 53.5315 58.0784Z" fill="#152C18"/>
<path d="M54.839 72.6238C52.3807 72.2022 47.2832 69.9158 43.5234 67.5059C36.1715 62.7402 29.0135 60.8063 27.6399 63.0417C25.5537 66.6171 34.623 76.0899 41.5564 77.8591C48.8255 79.7363 58.9037 77.8091 59.2082 74.5836C59.2572 73.8608 57.2405 72.9349 54.839 72.6238Z" fill="#152C18"/>
<path d="M31.9082 28.1132C34.1309 21.3947 32.7658 11.5294 28.9911 7.22554C25.7908 3.5766 25.1452 3.97347 25.4931 9.27984C25.6087 11.4889 24.4666 16.6071 23.0556 20.4745C20.7389 27.2748 19.8518 36.4605 21.411 38.2382C22.2315 39.1738 25.4943 37.9842 28.0303 35.7772C29.1574 34.7963 30.8966 31.3031 31.9082 28.1132Z" fill="#152C18"/>
<path d="M18.0593 32.9059C17.8735 30.428 18.8634 24.9473 20.2981 20.7293C23.1556 12.4685 23.3021 5.08211 20.7919 4.29712C16.8035 3.14868 9.77857 14.2113 9.73784 21.3406C9.67337 28.8205 13.9957 38.092 17.2109 37.6036C17.9267 37.4756 18.3391 35.302 18.0593 32.9059Z" fill="#152C18"/>
</svg>
