<svg width="86" height="79" viewBox="0 0 86 79" fill="none" xmlns="http://www.w3.org/2000/svg">
<path d="M74.8009 60.5993C71.198 54.4879 62.874 49 57.159 49C52.3136 49 52.1894 49.7483 56.4135 52.9912C58.1529 54.3631 61.2589 58.6038 63.2467 62.2208C66.8496 68.457 73.1858 75.1921 75.5464 75.1921C76.7888 75.1921 78.0311 71.9492 78.0311 68.5817C78.0311 67.085 76.5403 63.468 74.8009 60.5993Z" fill="#152C18"/>
<path d="M69.3343 74.1942C67.3465 72.6975 63.8678 68.3322 61.6315 64.4657C57.2831 56.8575 51.8166 51.8686 49.5803 53.2405C46.1016 55.4856 49.8288 68.0827 55.1711 72.8222C60.7618 77.8112 70.5767 80.6798 72.3161 77.9359C72.6888 77.3123 71.3222 75.5661 69.3343 74.1942Z" fill="#152C18"/>
<path d="M28.4216 53.0315C32.1997 47.0276 33.2743 37.0886 30.6709 31.9811C28.4637 27.6509 27.7435 27.8808 26.7921 33.1331C26.3678 35.3125 24.0223 40.02 21.7204 43.4442C17.8317 49.5049 14.7456 58.2356 15.8209 60.3452C16.3869 61.4555 19.8284 61.0886 22.8146 59.5546C24.1418 58.8728 26.6701 55.8927 28.4216 53.0315Z" fill="#152C18"/>
<path d="M13.876 54.339C14.2976 51.8807 16.584 46.7832 18.9939 43.0234C23.7597 35.6715 25.6935 28.5135 23.4582 27.1399C19.8827 25.0537 10.4099 34.123 8.64073 41.0564C6.76351 48.3255 8.69072 58.4037 11.9163 58.7082C12.639 58.7572 13.5649 56.7405 13.876 54.339Z" fill="#152C18"/>
<path d="M58.3869 31.4082C65.1054 33.6309 74.9707 32.2658 79.2746 28.4911C82.9235 25.2908 82.5266 24.6452 77.2203 24.9931C75.0113 25.1087 69.893 23.9666 66.0256 22.5556C59.2253 20.2389 50.0396 19.3518 48.2619 20.911C47.3263 21.7315 48.5159 24.9943 50.7229 27.5303C51.7038 28.6574 55.197 30.3966 58.3869 31.4082Z" fill="#152C18"/>
<path d="M53.5941 17.5593C56.0719 17.3735 61.5526 18.3634 65.7707 19.7981C74.0315 22.6556 81.4178 22.8021 82.2028 20.2919C83.3513 16.3035 72.2887 9.27857 65.1594 9.23784C57.6794 9.17337 48.408 13.4957 48.8964 16.7109C49.0244 17.4267 51.1979 17.8391 53.5941 17.5593Z" fill="#152C18"/>
</svg>
